<?xml version="1.0" encoding="utf-8"?>
<!-- Generator: Adobe Illustrator 26.5.0, SVG Export Plug-In . SVG Version: 6.00 Build 0)  -->
<svg version="1.0" id="图层_1" xmlns="http://www.w3.org/2000/svg" xmlns:xlink="http://www.w3.org/1999/xlink" x="0px" y="0px"
	 viewBox="0 0 1313.25 909.43" style="enable-background:new 0 0 1313.25 909.43;" xml:space="preserve">
<style type="text/css">
	.st0{fill:#D70E19;}
	.st1{fill:#AC1F24;}
	.st2{fill:#E88756;}
	.st3{fill:#251714;}
	.st4{fill:#005B9B;}
	.st5{fill:#003F72;}
	.st6{fill:#868685;}
</style>
<g>
	<g>
		<g>
			<path class="st0" d="M274.03,242.41c16.92,1.92,32.21,9.08,44.28,19.8c10.82,12.21,18.04,27.7,19.85,44.83v-64.63H274.03z"/>
			<path class="st1" d="M402.28,242.41h-64.13v64.63c1.82-17.14,9.04-32.64,19.88-44.85C370.1,251.49,385.37,244.33,402.28,242.41z"
				/>
			<path class="st2" d="M338.15,177.6c-1.8,17.14-9.02,32.64-19.85,44.85c-12.22,10.84-27.72,18.06-44.86,19.88
				c0.2,0.02,0.4,0.07,0.59,0.08h64.12V177.6z"/>
			<path class="st0" d="M358.04,222.47c-10.85-12.22-18.08-27.72-19.89-44.86v64.8h64.13c0.2-0.02,0.38-0.06,0.6-0.08
				C385.74,240.51,370.24,233.29,358.04,222.47z"/>
		</g>
		<g>
			<path class="st3" d="M510.63,534.91V428.69c0-1.83-0.43-3.25-1.28-4.23c-0.87-0.98-2.4-1.77-4.61-2.39v-2.94h39.15v2.94
				c-2.21,0.55-3.74,1.34-4.6,2.34c-0.86,1.01-1.29,2.44-1.29,4.27v106.22c0,1.91,0.44,3.36,1.34,4.36c0.88,1.02,2.4,1.79,4.55,2.35
				v2.94h-39.15v-2.94c2.21-0.61,3.74-1.4,4.61-2.39C510.2,538.25,510.63,536.82,510.63,534.91z"/>
			<path class="st3" d="M683.1,429.76l-14.98,29.54l-2.58-1.48c0.06-0.61,0.09-1.1,0.09-1.47c0-2.08-1.78-4.31-5.33-6.7
				c-10.91-7.6-23.71-11.4-38.42-11.4c-6.49,0-12.22,0.81-17.17,2.39c-3.62,1.22-6.55,3.06-8.78,5.5c-2.23,2.45-3.35,5.12-3.35,8
				c0,4.7,2.85,7.92,8.54,9.63c2.94,0.85,9.25,1.77,18.93,2.75l14.42,1.47c8.58,0.91,15.52,2.17,20.82,3.76
				c5.3,1.59,9.99,3.82,14.09,6.71c4.17,3,7.46,6.95,9.88,11.84c2.42,4.89,3.64,10.13,3.64,15.7c0,8.82-2.86,16.65-8.55,23.5
				c-5.15,6.24-13.14,10.87-23.98,13.87c-8.09,2.27-16.76,3.4-26.01,3.4c-16.6,0-32.99-3.99-49.15-11.95
				c-3.44-1.6-5.49-2.39-6.16-2.39c-0.8,0-2.05,0.67-3.76,2.02l-2.67-1.37l13.59-30.79l2.67,1.29c0,0.54,0,0.96,0,1.19
				c0,2.76,1.31,5.3,3.95,7.63c3.98,3.55,10.14,6.61,18.47,9.18c8.32,2.57,16.23,3.86,23.7,3.86c8.15,0,15.1-1.38,20.87-4.13
				c3.17-1.52,5.72-3.56,7.62-6.1c1.9-2.53,2.84-5.18,2.84-7.93c0-4.15-2.22-7.11-6.7-8.89c-3.12-1.22-9.43-2.35-18.93-3.39
				l-14.16-1.46c-9.49-0.97-16.2-1.92-20.12-2.81c-3.92-0.89-7.84-2.31-11.76-4.27c-5.58-2.75-9.96-6.9-13.15-12.41
				c-2.88-4.97-4.31-10.67-4.31-17.1c0-10.61,3.64-19.37,10.93-26.31c9.56-9.13,23.88-13.7,43-13.7c8.02,0,15.5,0.81,22.42,2.45
				c6.92,1.62,15.56,4.63,25.92,8.99c3.55,1.42,5.72,2.12,6.52,2.12c1.29,0,2.79-0.69,4.5-2.12L683.1,429.76z"/>
			<path class="st3" d="M707.81,534.91V428.69c0-1.83-0.43-3.25-1.28-4.23c-0.86-0.98-2.39-1.77-4.6-2.39v-2.94h39.14v2.94
				c-2.21,0.55-3.74,1.34-4.6,2.34c-0.85,1.01-1.28,2.44-1.28,4.27v106.22c0,1.91,0.44,3.36,1.33,4.36c0.88,1.02,2.4,1.79,4.55,2.35
				v2.94h-39.14v-2.94c2.2-0.61,3.74-1.4,4.6-2.39C707.38,538.25,707.81,536.82,707.81,534.91z"/>
			<path class="st3" d="M832.54,416.93c21.88,0,39.22,5.91,52.02,17.74c13.55,12.37,20.33,28.36,20.33,47.96
				c0,12.01-3.25,23.21-9.75,33.64c-12.7,20.34-33.49,30.51-62.43,30.51c-21.7,0-38.96-5.92-51.77-17.74
				c-6.86-6.31-12.07-13.87-15.63-22.7c-3.14-7.78-4.69-15.96-4.69-24.53c0-12.55,3.21-24.04,9.64-34.46
				C782.61,427.44,803.36,417.3,832.54,416.93z M832.62,438.25c-11.95,0-21.91,3.55-29.88,10.65c-9.45,8.39-14.18,19.37-14.18,32.96
				c0,13.58,4.73,24.56,14.18,32.94c7.97,7.1,17.98,10.65,30.07,10.65c12.09,0,22.09-3.55,29.99-10.65
				c4.72-4.22,8.33-9.4,10.85-15.51c2.2-5.44,3.31-11.06,3.31-16.88c0-14.2-4.73-25.37-14.16-33.5
				C854.76,441.93,844.71,438.38,832.62,438.25z"/>
			<path class="st3" d="M705.44,677.84v-95.62c0-1.65-0.38-2.92-1.15-3.8c-0.78-0.88-2.15-1.6-4.14-2.16v-2.64h35.24v2.64
				c-1.99,0.51-3.37,1.21-4.14,2.12c-0.78,0.91-1.16,2.19-1.16,3.84v95.62c0,1.71,0.38,3.02,1.19,3.92c0.8,0.92,2.16,1.62,4.11,2.11
				v2.66h-35.24v-2.66c1.99-0.54,3.36-1.26,4.14-2.15C705.05,680.84,705.44,679.55,705.44,677.84z"/>
			<path class="st3" d="M865.08,647.72l15.7,23.53l-2.16,1.49c-1.54-1.43-2.81-2.15-3.79-2.15c-1,0-3.79,1.32-8.37,3.97
				c-9.48,5.47-17.46,9.16-23.95,11.07c-6.47,1.89-14.17,2.86-23.1,2.86c-17.81,0-32.43-4.22-43.84-12.65
				c-6.73-4.91-12.03-11-15.88-18.28c-4.47-8.32-6.71-17.5-6.71-27.54c0-13.67,4-25.55,12.01-35.64
				c12-15.17,30.18-22.75,54.49-22.75c8.94,0,16.6,0.94,23,2.82c6.4,1.88,14.39,5.56,23.98,11.08c4.58,2.6,7.37,3.89,8.37,3.89
				c0.98,0,2.24-0.72,3.79-2.15l2.16,1.49l-15.7,23.57l-2.24-1.49c0.12-0.87,0.16-1.62,0.16-2.22c0-1.6-0.69-3.1-2.07-4.5
				c-1.37-1.4-3.83-3.09-7.36-5.06c-9.75-5.5-20.1-8.26-31.02-8.26c-12.89,0-23.18,3.23-30.85,9.68
				c-9.05,7.55-13.56,17.4-13.56,29.57c0,12.17,4.51,22.03,13.56,29.58c7.67,6.45,17.97,9.66,30.85,9.66
				c10.92,0,21.26-2.75,31.02-8.27c3.53-1.97,5.99-3.68,7.36-5.09c1.38-1.4,2.07-2.9,2.07-4.5c0-0.61-0.04-1.33-0.16-2.16
				L865.08,647.72z"/>
			<path class="st3" d="M978.21,657.74h-51.31l-7.59,15.88c-1.05,2.2-1.57,3.94-1.57,5.21c0,2.42,1.84,4.11,5.52,5.04v2.66H885.9
				v-2.66c2.21-0.44,3.89-1.2,5.05-2.31c1.17-1.11,2.47-3.25,3.98-6.45l41.51-86.76c1.32-2.75,1.98-4.95,1.98-6.61
				c0-2.54-1.59-4.35-4.79-5.47v-2.64h40.02v2.64c-3.23,0.95-4.88,2.57-4.88,4.89c0,1.6,0.53,3.42,1.58,5.46l43.01,87.01
				c1.82,3.7,3.42,6.22,4.8,7.57c1.37,1.35,3.22,2.24,5.55,2.68v2.66h-41.58v-2.66c3.65-0.61,5.48-2.31,5.48-5.13
				c0-1.16-0.55-2.86-1.66-5.12L978.21,657.74z M971.11,642.27l-18.3-40.22l-18.61,40.22H971.11z"/>
			<path class="st3" d="M1063.25,664.45h119.4c1.71,0,3-0.39,3.89-1.16c0.88-0.77,1.59-2.14,2.14-4.13h2.66v32.66h-2.66
				c-0.55-2-1.26-3.37-2.14-4.14c-0.89-0.77-2.18-1.16-3.89-1.16h-144.36c0,0,0.31-6.97,0.31-8.68v-250c0-1.71-0.39-3.01-1.16-3.88
				c-0.78-0.89-2.15-1.61-4.13-2.16v-2.64h35.23v2.64c-1.98,0.51-3.37,1.21-4.14,2.11c-0.77,0.91-1.15,2.22-1.15,3.93V664.45z"/>
		</g>
		<g>
			<path class="st3" d="M965.81,431.17c-1.72-1.77-2.57-3.4-2.57-4.86c0-2.15,1.31-3.56,3.95-4.23v-2.94h-42.63v2.94
				c2.21,0.61,3.74,1.41,4.59,2.39c0.85,0.98,1.29,2.4,1.29,4.23v106.22c0,1.91-0.44,3.34-1.29,4.32c-0.86,0.99-2.39,1.78-4.59,2.39
				v2.94h36.84v-2.94c-2.21-0.61-3.72-1.4-4.6-2.39c-0.84-0.98-1.28-2.41-1.28-4.32v-76.27l67.71,68.94v-37.39L965.81,431.17z"/>
		</g>
		<path class="st3" d="M676.41,600.99c-5.08-10.53-12.92-18.08-23.51-22.66c-7.4-3.14-17.99-4.71-31.78-4.71h-91.11H429.44h-20.26
			c0,0-31.2-3.46-46.76,23.06l-25.07,46.31l-25.09-48.04c-12.1-23.05-46.5-21.33-46.5-21.33v2.64c1.98,0.56,3.36,1.27,4.14,2.16
			c0.77,0.88,1.16,2.15,1.16,3.8v95.62c0,1.71-0.39,3-1.16,3.88c-0.77,0.88-2.16,1.61-4.14,2.15v2.66h33.17v-2.66
			c-1.98-0.54-3.36-1.26-4.14-2.15c-0.77-0.88-1.16-2.17-1.16-3.88v-69.32l41.64,78l43.97-78v69.32c0,1.71-0.4,3.02-1.21,3.92
			c-0.79,0.92-2.17,1.62-4.09,2.11v2.66h35.23v-2.66c-1.99-0.54-3.37-1.26-4.14-2.15c-0.77-0.88-1.16-2.17-1.16-3.88v-85.55
			l27.67-0.06h3.17v85.61c0,1.71-0.38,3-1.15,3.88c-0.77,0.88-2.15,1.61-4.14,2.15v2.66H532c1.66,0,2.92,0.39,3.81,1.16
			c0.88,0.77,1.59,2.14,2.16,4.14h2.64v-29.2h-2.64c-0.56,1.98-1.27,3.36-2.16,4.14c-0.89,0.77-2.15,1.15-3.81,1.15h-72.61v-30.94
			h72.55c1.65,0,2.93,0.41,3.8,1.2c0.89,0.8,1.6,2.16,2.16,4.1h2.65v-28.53h-2.65c-0.55,1.99-1.27,3.37-2.16,4.14
			c-0.87,0.77-2.15,1.15-3.8,1.15h-72.55v-26.8h70.63h89.03c7.51,0,13.53,0.76,18.05,2.28c4.54,1.52,8.4,4.06,11.6,7.64
			c5.74,6.46,8.61,15.75,8.61,27.88c0,16.77-5.32,28.04-15.98,33.82c-4.97,2.71-12.39,4.06-22.28,4.06h-30.97v-53.36l-24.65-13.24
			v76.53c0,1.71-0.39,3-1.15,3.88c-0.77,0.88-2.15,1.61-4.14,2.15v2.66h62.99c10.43,0,19-0.92,25.73-2.77
			c6.74-1.85,12.61-4.92,17.64-9.22c11.96-10.21,17.95-25.04,17.95-44.5C682.45,618.95,680.43,609.27,676.41,600.99z"/>
	</g>
	<path class="st4" d="M241.11,337.22l-2.36-3.73c-8.82-11.02-14.09-25.01-14.09-40.22c0-20.85,9.94-39.31,25.28-51.08H148.15
		c-1.46-0.25-2.96-0.41-4.48-0.41c-14.45,0-26.17,11.71-26.17,26.16c0,5.97,2.02,11.46,5.39,15.86l-0.06,0.12l215.32,290.73V468.04
		L241.11,337.22z"/>
	<path class="st5" d="M435.46,337.22l2.36-3.73c8.82-11.02,14.09-25.01,14.09-40.22c0-20.85-9.94-39.31-25.28-51.08h101.8
		c1.46-0.25,2.95-0.41,4.48-0.41c14.45,0,26.17,11.71,26.17,26.16c0,5.97-2.03,11.46-5.39,15.86l0.06,0.12L338.41,574.65V468.04
		L435.46,337.22z"/>
</g>
<g>
	<path class="st6" d="M1110.49,493.37v9.35h-11.96v-75.8h36.22v66.45H1110.49z M1110.49,438.67v15.44h12.29v-15.44H1110.49z
		 M1122.78,481.63v-15.99h-12.29v15.99H1122.78z M1191.95,507.73c0,6.85-1.41,10.22-5.65,12.4c-4.24,2.07-10.55,2.39-19.68,2.39
		c-0.54-3.59-2.61-9.24-4.46-12.51c5.87,0.33,12.4,0.22,14.25,0.11c2.07,0,2.72-0.65,2.72-2.5v-19.14h-23.38
		c-2.5,12.83-7.72,25.78-18.71,34.69c-1.96-2.5-7.07-6.85-9.9-8.37c16.42-13.48,17.84-33.82,17.84-50.14V425.4h46.98V507.73z
		 M1179.11,476.84v-13.92h-21.43v1.74c0,3.81-0.11,7.94-0.44,12.18H1179.11z M1157.69,437.36v13.92h21.43v-13.92H1157.69z"/>
	<path class="st6" d="M1187.71,597.13c-4.46,2.72-9.46,5.44-14.25,7.94c4.35,8.48,11.85,17.18,22.3,21.43
		c-2.83,2.5-6.74,7.83-8.59,11.2c-11.31-5.87-19.14-17.29-23.82-27.62c-1.31,0.54-2.5,1.09-3.7,1.52c4.13,11.2,1.2,21.64-6.31,26.1
		c-4.35,2.83-7.72,3.59-13.16,3.7c-2.83,0-6.09-0.11-9.57-0.32c-0.22-3.48-1.41-8.27-3.48-11.64c3.92,0.44,7.94,0.54,10.77,0.54
		c2.94,0,5.33-0.22,7.29-1.85c3.16-1.96,4.57-6.2,3.37-11.64c-12.18,8.48-28.71,15.88-43.07,19.8c-1.74-2.61-4.89-6.96-7.29-9.35
		c16.31-3.48,35.56-11.2,46.33-19.25c-0.87-1.31-1.96-2.72-3.04-3.92c-9.9,6.96-23.6,13.05-35.46,16.31
		c-1.63-2.61-4.68-6.52-6.96-8.59c12.51-2.72,26.75-7.94,35.67-13.81c-1.52-1.19-3.15-2.28-4.89-3.37
		c-8.37,4.89-17.73,8.59-27.51,11.31c-1.2-2.17-4.35-6.85-6.31-9.03c7.94-1.85,15.66-4.24,22.51-7.4h-10.77v-16.42
		c-1.19,0.76-2.39,1.52-3.7,2.28c-1.85-2.94-5.87-7.29-8.7-9.13c14.03-7.4,24.25-17.4,29.91-26.21l13.48,2.61
		c-1.09,1.52-2.17,3.04-3.26,4.57h19.25l1.85-0.54l8.81,5.76c-1.85,3.26-4.57,6.85-7.39,10.33h25.99v26.75h-43.5
		c6.42,4.24,11.2,8.92,14.68,13.81c7.83-4.02,16.32-9.13,22.08-13.6L1187.71,597.13z M1134.2,579.84c3.05-2.5,5.87-5.11,8.05-8.05
		h-22.29v8.05H1134.2z M1127.24,556.56c-1.96,1.96-3.91,3.92-6.09,5.87h21.97c1.52-1.85,3.05-3.81,4.46-5.87H1127.24z
		 M1171.17,571.79h-16.31c-1.85,2.94-3.92,5.55-6.31,8.05h22.62V571.79z"/>
</g>
</svg>
